PathFileType	4	(X/Y/Z)	D:\TRACE\v60_Jaco2_6-2-23\JustArmDRS_Motion2_3-platform.trc
DataRate	CameraRate	NumFrames	NumMarkers	Units	OrigDataRate	OrigDataStartFrame	OrigNumFrames
100.00	100.00	      54	5	mm	100.00	6098	      6969
Frame#	Time	Left_Front			Right_Front			Left_Aft			Right_Aft			Post			
		X1	Y1	Z1	X2	Y2	Z2	X3	Y3	Z3	X4	Y4	Z4	X5	Y5	Z5	

6098	60.970	-753.13599	44.30404	-629.73743	816.76740	45.58471	-635.15515	-661.25995	-17.21979	503.62384	780.63519	-18.64128	513.18469	34.09594	1359.57654	-899.37042	
6099	60.980	-752.44904	45.84981	-629.40558	817.35468	46.58166	-634.51526	-660.85223	-18.09715	503.96225	781.24750	-19.77830	513.38220	35.16400	1361.40857	-897.51221	
6100	60.990	-752.02203	46.81729	-629.01093	818.00159	48.17234	-634.28357	-660.24939	-19.02621	504.22336	781.50708	-20.79563	513.70721	35.50219	1363.49646	-895.40344	
6101	61.000	-751.47870	48.17189	-628.59515	818.29785	49.29956	-633.81848	-659.94556	-19.81800	504.34146	782.17047	-21.60695	514.09076	35.49751	1365.36377	-893.19812	
6102	61.010	-751.25189	49.45684	-628.47064	818.44812	50.48497	-633.60144	-659.41809	-20.92114	504.63882	782.57776	-22.32609	514.34186	35.67248	1367.10315	-890.59924	
6103	61.020	-751.09943	50.72272	-627.88495	819.19946	51.99071	-632.91449	-659.14240	-21.62109	505.01199	782.90991	-23.45294	514.40857	36.30044	1368.65491	-887.43555	
6104	61.030	-750.73145	51.69013	-627.65405	819.42340	53.14358	-632.81049	-658.84619	-22.57644	505.15424	783.23090	-24.21710	514.49274	36.53186	1370.17273	-884.39490	
6105	61.040	-750.39270	53.26893	-627.42090	819.69788	54.29792	-632.38062	-658.66382	-23.32280	505.38913	783.17999	-25.16316	514.76886	37.27838	1371.87109	-880.91278	
6106	61.050	-750.42096	54.12503	-626.95575	819.71857	55.17324	-632.25043	-658.65240	-24.01282	505.56396	783.58124	-25.97742	514.97986	37.33735	1373.30078	-877.32300	
6107	61.060	-750.14551	55.02931	-626.52203	819.83081	56.48243	-631.78528	-658.35706	-25.01740	505.82498	783.72211	-26.56447	515.74774	37.24617	1374.66174	-873.17114	
6108	61.070	-749.85425	56.00928	-626.18732	819.99207	57.47654	-631.63672	-658.25751	-25.70697	505.95444	783.76422	-27.45607	515.94769	37.26570	1375.87671	-869.21826	
6109	61.080	-749.88879	57.17873	-625.86432	820.10168	58.54054	-631.09265	-658.22040	-26.13908	506.19888	783.81378	-28.44586	515.97284	37.06526	1377.10571	-864.80060	
6110	61.090	-749.86121	58.28513	-625.65314	819.94263	59.23011	-631.01935	-658.14252	-27.09752	506.44772	784.04926	-28.80977	516.31091	36.96465	1378.18433	-860.03955	
6111	61.100	-749.84155	58.97825	-625.33954	819.98462	59.90952	-630.72931	-658.04407	-27.78603	506.58084	784.22375	-29.80332	516.27765	37.38313	1379.16003	-854.73389	
6112	61.110	-750.03015	59.81475	-624.80115	820.03265	60.99031	-630.29761	-658.21002	-28.38232	506.54608	784.14606	-30.53798	516.31665	37.21448	1380.06482	-849.90875	
6113	61.120	-749.99091	60.96850	-624.73059	820.00043	61.94255	-630.10895	-658.16931	-28.98533	506.80322	783.97095	-31.25348	516.39014	36.76603	1381.14270	-843.91058	
6114	61.130	-750.12714	61.88632	-624.42273	819.93445	62.96804	-629.79132	-658.13586	-29.83791	507.11621	784.14380	-31.86750	516.75067	36.81334	1381.84937	-838.70789	
6115	61.140	-750.22522	62.75706	-623.95111	819.71875	63.74868	-629.48468	-658.15784	-30.29613	507.20996	783.93030	-32.11425	517.53455	36.30935	1383.28528	-834.32227	
6116	61.150	-750.47260	63.61879	-623.81403	819.35303	64.69658	-629.21814	-658.54425	-30.90135	507.25165	783.55133	-33.05525	517.41119	36.13325	1384.34485	-831.20471	
6117	61.160	-750.75775	64.37777	-623.54669	819.27985	65.68600	-628.75378	-658.71741	-31.33860	507.41272	783.47772	-33.60254	517.19238	35.07057	1385.36060	-829.70740	
6118	61.170	-751.01935	65.17011	-623.48804	818.76178	66.32117	-628.54883	-659.00916	-32.00430	507.63879	783.08838	-34.50414	517.34924	34.87130	1386.53223	-829.59460	
6119	61.180	-751.41370	65.89664	-623.27899	818.55969	66.76250	-628.35645	-659.45367	-32.81914	507.89691	782.85107	-34.68389	517.50861	35.02609	1387.51807	-830.29712	
6120	61.190	-751.72968	66.47060	-623.22461	818.18451	67.24369	-628.29034	-659.66510	-33.06870	508.04633	782.67664	-34.43425	516.98517	35.04210	1388.32202	-831.65479	
6121	61.200	-752.11932	66.97425	-622.67664	817.89172	67.69184	-628.14215	-659.86682	-33.35969	508.02719	781.53125	-34.34087	517.12921	35.11838	1389.21997	-832.98175	
6122	61.210	-752.35980	67.46584	-622.24268	817.81110	68.30928	-627.84998	-660.22198	-33.88882	508.13159	781.17017	-34.81951	517.43536	34.74996	1390.20190	-833.43829	
6123	61.220	-752.73584	67.92142	-622.05005	817.39368	68.98628	-627.63544	-660.64709	-34.35295	508.13681	780.74353	-35.36580	517.51245	34.91280	1390.94641	-833.60504	
6124	61.230	-753.11938	68.36029	-621.94250	816.84259	69.50764	-627.58435	-660.70197	-34.77143	508.19574	781.22565	-36.29395	517.70953	34.04929	1391.71655	-833.97754	
6125	61.240	-753.41528	68.81609	-621.79596	816.28076	69.99105	-627.39594	-661.21674	-35.37020	508.35498	780.76324	-36.72788	517.65295	33.44604	1392.35522	-833.85645	
6126	61.250	-753.97632	69.49757	-621.94012	815.75391	70.31476	-627.22241	-662.27704	-35.16461	508.36203	779.94220	-37.15015	517.51398	33.30411	1393.20410	-832.99701	
6127	61.260	-754.58087	70.00159	-621.75024	815.31531	70.72475	-627.05237	-662.75275	-35.51078	508.53152	778.97162	-37.19237	517.82849	33.00599	1393.66528	-831.87482	
6128	61.270	-755.17609	70.58965	-621.72437	814.87604	70.98835	-626.94763	-663.19080	-35.77196	508.57721	778.63940	-37.42612	517.99200	32.25929	1394.21082	-830.65680	
6129	61.280	-755.69000	71.01047	-621.52521	814.41858	71.49219	-626.78052	-664.32806	-35.62678	508.93845	778.83716	-38.06979	518.38385	31.69888	1394.65442	-829.29663	
6130	61.290	-756.02057	71.10650	-621.28461	813.96411	71.73774	-626.67493	-664.57489	-35.85730	508.95987	778.49646	-38.50106	518.46838	31.66149	1395.14246	-827.28162	
6131	61.300	-756.47394	71.39843	-621.09222	813.45782	72.01387	-626.55188	-664.94629	-36.12170	508.89621	777.85162	-38.68353	518.42291	30.84575	1395.31335	-825.23267	
6132	61.310	-756.87274	71.70153	-621.05902	812.75543	72.36817	-626.43939	-665.58130	-36.41911	508.89658	776.54395	-38.63340	518.55188	30.07173	1395.48132	-822.51221	
6133	61.320	-757.54694	71.80302	-620.92584	812.24683	72.56390	-626.42029	-665.98956	-36.63349	509.02875	776.07935	-38.78077	518.52350	29.69912	1395.47034	-819.37061	
6134	61.330	-758.41504	71.93811	-620.95776	811.82935	72.65218	-626.30298	-666.52643	-36.82219	509.12326	776.08130	-39.27772	518.56854	29.13199	1395.24585	-816.60760	
6135	61.340	-758.94617	71.98993	-621.09113	811.01831	72.84993	-626.27356	-667.19720	-36.95244	509.12119	775.46271	-39.41745	518.54401	27.96402	1395.40991	-814.30872	
6136	61.350	-759.64203	72.14978	-620.99371	810.34265	73.08913	-626.26514	-667.64990	-36.86850	509.12073	774.79205	-39.44952	518.74249	27.33334	1395.46973	-813.26379	
6137	61.360	-760.09436	72.10345	-620.81122	809.83588	73.24959	-626.20190	-668.35052	-36.84120	509.08591	774.28522	-39.37132	518.70673	26.42401	1395.73315	-812.91083	
6138	61.370	-760.54114	72.08753	-620.73267	809.23578	73.26886	-626.22290	-669.15051	-36.96664	509.05951	773.27924	-39.41365	518.89032	26.07905	1395.74219	-813.85010	
6139	61.380	-761.44989	72.19149	-620.63245	808.63745	73.00431	-626.27167	-669.71558	-37.03149	509.00095	772.80371	-39.58539	518.92542	25.35921	1395.86450	-815.44678	
6140	61.390	-762.13745	72.33131	-620.81342	807.75714	72.90900	-626.29266	-670.31781	-36.93891	508.99414	772.16766	-39.63226	518.84491	24.72296	1395.91650	-817.64850	
6141	61.400	-762.94244	72.26340	-620.92059	807.01990	72.81483	-626.26642	-671.19263	-36.85215	509.02740	771.46393	-39.43055	518.97467	24.29853	1396.01575	-819.86786	
6142	61.410	-763.71027	72.10926	-620.83624	806.21167	72.74697	-626.23816	-671.76654	-36.77440	509.01465	770.76624	-39.68314	518.73749	23.74932	1396.00171	-821.72693	
6143	61.420	-764.03967	71.93198	-620.85077	805.82861	72.59344	-626.30902	-672.39435	-36.67976	509.08014	769.53491	-39.56866	519.13574	23.12202	1395.80762	-822.87140	
6144	61.430	-765.03607	71.89526	-620.82111	805.09680	72.59005	-626.29041	-673.32404	-36.66864	509.02792	768.72546	-39.02192	519.14575	22.33509	1395.71008	-824.20227	
6145	61.440	-765.83789	71.70448	-621.13177	804.21820	72.27712	-626.35205	-674.06171	-36.52606	508.86426	768.50317	-39.14441	518.78674	21.65764	1395.42407	-825.02820	
6146	61.450	-766.75195	71.22906	-621.26288	803.30298	71.92086	-626.47589	-674.58887	-36.29390	508.75208	767.74579	-39.04256	518.66998	20.83482	1395.23547	-825.30603	
6147	61.460	-767.30194	71.17897	-621.37891	802.70050	71.66689	-626.59485	-675.74487	-36.05498	508.63907	766.64886	-38.69306	518.60992	20.01142	1394.72534	-825.39136	
6148	61.470	-767.90887	70.93783	-621.43024	801.90753	71.40282	-626.64197	-676.52795	-35.73343	508.71564	765.90588	-38.46037	518.95074	19.23157	1394.14026	-825.17291	
6149	61.480	-769.18665	70.40772	-621.32410	801.11096	71.06841	-626.63593	-677.24200	-35.58960	508.73312	765.23413	-38.14123	518.80005	18.00529	1393.68774	-824.68921	
6150	61.490	-769.98322	70.05370	-621.53461	799.89050	70.56693	-626.89374	-678.08832	-35.44676	508.75131	764.43018	-37.88062	518.69482	17.08298	1392.84241	-823.92010	
6151	61.500	-770.69794	69.25873	-621.69800	799.22900	70.33662	-627.08875	-678.91034	-35.01467	508.68518	763.61981	-37.52686	518.72498	16.23548	1392.18457	-822.95331	
